<mxfile host="app.diagrams.net" agent="Mozilla/5.0 (Windows NT 10.0; Win64; x64) AppleWebKit/537.36 (KHTML, like Gecko) Chrome/139.0.0.0 Safari/537.36" version="28.1.0">
  <diagram id="MapaCap2" name="Capítulo 2 — Nombres significativos">
    <mxGraphModel dx="2084" dy="2340" grid="1" gridSize="10" guides="1" tooltips="1" connect="1" arrows="1" fold="1" page="1" pageScale="1" pageWidth="2000" pageHeight="1200" math="0" shadow="0">
      <root>
        <mxCell id="0" />
        <mxCell id="1" parent="0" />
        <mxCell id="T" value="Capítulo 2 — Nombres significativos&amp;nbsp;" style="rounded=0;whiteSpace=wrap;html=1;fontSize=24;fontStyle=1;align=center;strokeWidth=2;" parent="1" vertex="1">
          <mxGeometry x="545" width="450" height="60" as="geometry" />
        </mxCell>
        <mxCell id="A" value="Nombres significativos (Capítulo 2)" style="rounded=1;whiteSpace=wrap;html=1;fontSize=14;" parent="1" vertex="1">
          <mxGeometry x="620" y="100" width="300" height="60" as="geometry" />
        </mxCell>
        <mxCell id="B" value="Revelando la intencion" style="rounded=1;whiteSpace=wrap;html=1;fontSize=14;" parent="1" vertex="1">
          <mxGeometry x="110" y="190" width="200" height="60" as="geometry" />
        </mxCell>
        <mxCell id="C" value="Evitar desinformación" style="rounded=1;whiteSpace=wrap;html=1;fontSize=14;" parent="1" vertex="1">
          <mxGeometry x="890" y="490" width="220" height="60" as="geometry" />
        </mxCell>
        <mxCell id="G" value="Evitar codificaciones" style="rounded=1;whiteSpace=wrap;html=1;fontSize=14;" parent="1" vertex="1">
          <mxGeometry x="900" y="180" width="220" height="60" as="geometry" />
        </mxCell>
        <mxCell id="D" value="Diferenciación con sentido" style="rounded=1;whiteSpace=wrap;html=1;fontSize=14;" parent="1" vertex="1">
          <mxGeometry x="240" y="310" width="260" height="60" as="geometry" />
        </mxCell>
        <mxCell id="E" value="Pronunciables" style="rounded=1;whiteSpace=wrap;html=1;fontSize=14;" parent="1" vertex="1">
          <mxGeometry x="530" y="250" width="180" height="60" as="geometry" />
        </mxCell>
        <mxCell id="H" value="Evitar mapeo mental" style="rounded=1;whiteSpace=wrap;html=1;fontSize=14;" parent="1" vertex="1">
          <mxGeometry x="850" y="300" width="230" height="60" as="geometry" />
        </mxCell>
        <mxCell id="J" value="Nombres de métodos" style="rounded=1;whiteSpace=wrap;html=1;fontSize=14;" parent="1" vertex="1">
          <mxGeometry x="1560" y="320" width="220" height="60" as="geometry" />
        </mxCell>
        <mxCell id="F" value="Buscables" style="rounded=1;whiteSpace=wrap;html=1;fontSize=14;" parent="1" vertex="1">
          <mxGeometry x="510" y="340" width="180" height="60" as="geometry" />
        </mxCell>
        <mxCell id="M" value="Consistencia léxica" style="rounded=1;whiteSpace=wrap;html=1;fontSize=14;" parent="1" vertex="1">
          <mxGeometry x="400" y="540" width="220" height="60" as="geometry" />
        </mxCell>
        <mxCell id="N" value="Agregar contexto útil" style="rounded=1;whiteSpace=wrap;html=1;fontSize=14;" parent="1" vertex="1">
          <mxGeometry x="1015" y="-30" width="230" height="60" as="geometry" />
        </mxCell>
        <mxCell id="O" value="Evitar contexto gratuito" style="rounded=1;whiteSpace=wrap;html=1;fontSize=14;" parent="1" vertex="1">
          <mxGeometry x="1490" y="-30" width="260" height="60" as="geometry" />
        </mxCell>
        <mxCell id="K" value="Sustantivos claros" style="rounded=1;whiteSpace=wrap;html=1;fontSize=14;" parent="1" vertex="1">
          <mxGeometry x="1220" y="490" width="220" height="60" as="geometry" />
        </mxCell>
        <mxCell id="L" value="Verbos claros" style="rounded=1;whiteSpace=wrap;html=1;fontSize=14;" parent="1" vertex="1">
          <mxGeometry x="1480" y="530" width="200" height="60" as="geometry" />
        </mxCell>
        <mxCell id="Q" value="No ser ingenioso" style="rounded=1;whiteSpace=wrap;html=1;fontSize=14;" parent="1" vertex="1">
          <mxGeometry x="550" y="680" width="220" height="60" as="geometry" />
        </mxCell>
        <mxCell id="R" value="Vocabulario del dominio" style="rounded=1;whiteSpace=wrap;html=1;fontSize=14;" parent="1" vertex="1">
          <mxGeometry x="1010" y="550" width="240" height="60" as="geometry" />
        </mxCell>
        <mxCell id="S" value="Una palabra por concepto" style="rounded=1;whiteSpace=wrap;html=1;fontSize=14;" parent="1" vertex="1">
          <mxGeometry x="810" y="610" width="260" height="60" as="geometry" />
        </mxCell>
        <mxCell id="e501" value="se logra con" style="edgeStyle=orthogonalEdgeStyle;rounded=1;endArrow=block;endFill=1;html=1;fontSize=12;" parent="1" source="A" target="B" edge="1">
          <mxGeometry x="0.3488" relative="1" as="geometry">
            <mxPoint as="offset" />
          </mxGeometry>
        </mxCell>
        <mxCell id="e502" value="evita" style="edgeStyle=orthogonalEdgeStyle;rounded=1;endArrow=block;endFill=1;html=1;fontSize=12;" parent="1" source="A" target="C" edge="1">
          <mxGeometry relative="1" as="geometry">
            <mxPoint as="offset" />
          </mxGeometry>
        </mxCell>
        <mxCell id="e503" value="exige" style="edgeStyle=orthogonalEdgeStyle;rounded=1;endArrow=block;endFill=1;html=1;fontSize=12;" parent="1" source="A" target="D" edge="1">
          <mxGeometry x="0.5333" relative="1" as="geometry">
            <mxPoint as="offset" />
          </mxGeometry>
        </mxCell>
        <mxCell id="e504" value="requiere" style="edgeStyle=orthogonalEdgeStyle;rounded=1;endArrow=block;endFill=1;html=1;fontSize=12;" parent="1" source="A" target="E" edge="1">
          <mxGeometry relative="1" as="geometry">
            <mxPoint as="offset" />
          </mxGeometry>
        </mxCell>
        <mxCell id="e505" value="requiere" style="edgeStyle=orthogonalEdgeStyle;rounded=1;endArrow=block;endFill=1;html=1;fontSize=12;" parent="1" source="A" target="F" edge="1">
          <mxGeometry relative="1" as="geometry">
            <mxPoint as="offset" />
            <Array as="points">
              <mxPoint x="770" y="325" />
              <mxPoint x="520" y="325" />
            </Array>
          </mxGeometry>
        </mxCell>
        <mxCell id="e506" value="evita" style="edgeStyle=orthogonalEdgeStyle;rounded=1;endArrow=block;endFill=1;html=1;fontSize=12;" parent="1" source="A" target="G" edge="1">
          <mxGeometry relative="1" as="geometry">
            <mxPoint as="offset" />
          </mxGeometry>
        </mxCell>
        <mxCell id="e507" value="evita" style="edgeStyle=orthogonalEdgeStyle;rounded=1;endArrow=block;endFill=1;html=1;fontSize=12;" parent="1" source="A" target="H" edge="1">
          <mxGeometry relative="1" as="geometry">
            <mxPoint as="offset" />
          </mxGeometry>
        </mxCell>
        <mxCell id="e508" value="guía" style="edgeStyle=orthogonalEdgeStyle;rounded=1;endArrow=block;endFill=1;html=1;fontSize=12;" parent="1" source="A" target="I" edge="1">
          <mxGeometry relative="1" as="geometry">
            <mxPoint as="offset" />
          </mxGeometry>
        </mxCell>
        <mxCell id="e509" value="deben ser" style="edgeStyle=orthogonalEdgeStyle;rounded=1;endArrow=block;endFill=1;html=1;fontSize=12;" parent="1" source="I" target="K" edge="1">
          <mxGeometry relative="1" as="geometry">
            <mxPoint as="offset" />
          </mxGeometry>
        </mxCell>
        <mxCell id="e510" value="guía" style="edgeStyle=orthogonalEdgeStyle;rounded=1;endArrow=block;endFill=1;html=1;fontSize=12;" parent="1" source="I" target="J" edge="1">
          <mxGeometry relative="1" as="geometry">
            <mxPoint as="offset" />
          </mxGeometry>
        </mxCell>
        <mxCell id="e511" value="deben ser" style="edgeStyle=orthogonalEdgeStyle;rounded=1;endArrow=block;endFill=1;html=1;fontSize=12;" parent="1" source="J" target="L" edge="1">
          <mxGeometry relative="1" as="geometry">
            <mxPoint as="offset" />
          </mxGeometry>
        </mxCell>
        <mxCell id="e512" value="promueve" style="edgeStyle=orthogonalEdgeStyle;rounded=1;endArrow=block;endFill=1;html=1;fontSize=12;" parent="1" source="A" target="M" edge="1">
          <mxGeometry relative="1" as="geometry">
            <mxPoint as="offset" />
          </mxGeometry>
        </mxCell>
        <mxCell id="e513" value="implica" style="edgeStyle=orthogonalEdgeStyle;rounded=1;endArrow=block;endFill=1;html=1;fontSize=12;" parent="1" source="M" target="S" edge="1">
          <mxGeometry relative="1" as="geometry">
            <mxPoint as="offset" />
          </mxGeometry>
        </mxCell>
        <mxCell id="e514" value="aplica" style="edgeStyle=orthogonalEdgeStyle;rounded=1;endArrow=block;endFill=1;html=1;fontSize=12;" parent="1" source="A" target="N" edge="1">
          <mxGeometry relative="1" as="geometry">
            <mxPoint as="offset" />
          </mxGeometry>
        </mxCell>
        <mxCell id="e515" value="evita" style="edgeStyle=orthogonalEdgeStyle;rounded=1;endArrow=block;endFill=1;html=1;fontSize=12;" parent="1" source="A" target="O" edge="1">
          <mxGeometry relative="1" as="geometry">
            <mxPoint as="offset" />
          </mxGeometry>
        </mxCell>
        <mxCell id="e517" value="recomienda" style="edgeStyle=orthogonalEdgeStyle;rounded=1;endArrow=block;endFill=1;html=1;fontSize=12;" parent="1" source="A" target="Q" edge="1">
          <mxGeometry relative="1" as="geometry">
            <mxPoint as="offset" />
          </mxGeometry>
        </mxCell>
        <mxCell id="e518" value="usa" style="edgeStyle=orthogonalEdgeStyle;rounded=1;endArrow=block;endFill=1;html=1;fontSize=12;" parent="1" source="A" target="R" edge="1">
          <mxGeometry relative="1" as="geometry">
            <mxPoint as="offset" />
          </mxGeometry>
        </mxCell>
        <mxCell id="snqXuiLyGbXh55r3JVFb-1" value="" style="edgeStyle=orthogonalEdgeStyle;rounded=1;endArrow=block;endFill=1;html=1;fontSize=12;" parent="1" source="A" target="I" edge="1">
          <mxGeometry relative="1" as="geometry">
            <mxPoint as="offset" />
            <mxPoint x="920" y="130" as="sourcePoint" />
            <mxPoint x="1290" y="300" as="targetPoint" />
          </mxGeometry>
        </mxCell>
        <mxCell id="I" value="Nombres de clases" style="rounded=1;whiteSpace=wrap;html=1;fontSize=14;" parent="1" vertex="1">
          <mxGeometry x="1410" y="180" width="220" height="60" as="geometry" />
        </mxCell>
      </root>
    </mxGraphModel>
  </diagram>
</mxfile>
